<svg width="44" height="44" viewBox="0 0 44 44" fill="none" xmlns="http://www.w3.org/2000/svg">
<path d="M22 0C9.82667 0 0 9.82667 0 22C0 34.1733 9.82667 44 22 44C34.1733 44 44 34.1733 44 22C44 9.82667 34.1733 0 22 0ZM32.7067 17.4533L20.6067 29.6267C20.1667 30.0667 19.6533 30.2867 19.0667 30.2867C18.48 30.2867 17.8933 30.0667 17.5267 29.6267L11.3667 23.32C10.4867 22.44 10.56 21.0467 11.3667 20.24C12.2467 19.36 13.64 19.4333 14.4467 20.24L19.0667 24.9333L29.5533 14.3C30.4333 13.42 31.8267 13.42 32.6333 14.3C33.5133 15.18 33.5867 16.5733 32.7067 17.4533Z" fill="#04E292"/>
</svg>
