<svg width="24" height="20" viewBox="0 0 24 20" fill="none" xmlns="http://www.w3.org/2000/svg">
<path d="M18.4125 8.5125H24V4.44375C24 3.975 24 3.16875 23.1937 3.13125V2.1C23.1937 0.9375 22.2563 0 21.0938 0H2.1C0.9375 0 0 0.9375 0 2.1V17.85C0 18.3187 0 19.1625 1.35 19.1625H22.65C24 19.1625 24 18.3187 24 17.85V13.3125H18.4125C17.7562 13.3125 17.1562 13.05 16.725 12.6187C16.2937 12.1875 16.0312 11.5687 16.0312 10.9312C16.0312 9.6 17.1 8.5125 18.4125 8.5125ZM1.5375 3.1125V2.08125C1.5375 1.7625 1.8 1.5 2.11875 1.5H21.0938C21.4125 1.5 21.675 1.7625 21.675 2.08125V3.1125H1.5375ZM17.0062 10.9125C17.0062 10.0687 17.7 9.375 18.5438 9.375C19.3875 9.375 20.0812 10.0687 20.0812 10.9125C20.0812 11.7562 19.3875 12.45 18.5438 12.45C17.7 12.45 17.0062 11.775 17.0062 10.9125Z" fill="#19226D"/>
</svg>
